<?xml version="1.0" standalone="no"?>
<!DOCTYPE svg PUBLIC "-//W3C//DTD SVG 20010904//EN"
 "http://www.w3.org/TR/2001/REC-SVG-20010904/DTD/svg10.dtd">
<svg version="1.0" xmlns="http://www.w3.org/2000/svg"
 width="427.000000pt" height="427.000000pt" viewBox="0 0 427.000000 427.000000"
 preserveAspectRatio="xMidYMid meet">
<metadata>
Created by potrace 1.14, written by Peter Selinger 2001-2017
</metadata>
<g transform="translate(0.000000,427.000000) scale(0.100000,-0.100000)"
fill="#000000" stroke="none">
<path d="M978 3184 c-2 -1 -21 -3 -43 -5 -22 -1 -44 -5 -49 -7 -5 -3 -23 -7
-40 -8 -32 -4 -71 -11 -71 -14 0 -1 -7 -3 -15 -5 -24 -4 -154 -57 -160 -65 -3
-3 -20 -12 -37 -19 -18 -8 -33 -17 -33 -22 0 -5 -6 -9 -13 -9 -15 0 -129 -91
-172 -136 -46 -49 -85 -96 -85 -101 0 -2 -13 -24 -30 -47 -16 -24 -26 -46 -23
-50 4 -3 1 -6 -5 -6 -6 0 -14 -10 -18 -22 -3 -13 -13 -31 -22 -40 -8 -10 -12
-18 -7 -18 4 0 0 -11 -9 -25 -9 -14 -14 -25 -11 -25 3 0 -1 -13 -9 -29 -9 -16
-12 -31 -9 -35 4 -3 2 -6 -4 -6 -5 0 -10 -6 -11 -12 0 -7 -4 -26 -7 -43 -4
-16 -8 -37 -10 -45 -2 -8 -4 -15 -5 -15 -4 0 -10 -43 -13 -82 -1 -24 -4 -43
-7 -43 -8 0 -9 -19 -9 -165 0 -109 3 -190 9 -190 1 0 3 -16 5 -35 2 -19 7 -48
10 -65 4 -16 7 -40 8 -52 1 -13 5 -23 9 -23 5 0 7 -3 6 -7 -4 -15 35 -123 44
-123 5 0 6 -5 3 -11 -6 -8 39 -113 55 -129 3 -3 14 -21 24 -40 45 -83 137
-184 236 -260 25 -19 47 -38 48 -42 2 -5 7 -8 11 -8 5 0 41 -18 82 -41 41 -23
79 -42 84 -43 19 -5 50 -17 68 -27 11 -6 21 -8 24 -5 3 3 14 1 25 -5 11 -6 34
-13 51 -15 18 -2 43 -6 57 -9 91 -19 288 -22 380 -6 156 28 246 65 385 156
105 68 119 81 278 248 15 16 27 32 27 37 0 4 7 14 17 21 20 17 123 174 123
188 0 6 3 11 8 11 4 0 20 28 36 61 33 71 34 70 84 -31 15 -30 35 -64 45 -74 9
-11 17 -24 17 -28 0 -5 8 -21 19 -36 10 -15 38 -56 61 -91 44 -67 46 -69 83
-112 57 -66 87 -97 131 -134 26 -22 53 -45 59 -51 29 -25 141 -95 163 -100 13
-3 24 -11 24 -17 0 -6 3 -8 6 -4 4 3 24 -3 45 -14 22 -11 39 -17 39 -14 0 2
12 0 27 -6 46 -17 103 -23 223 -23 136 0 171 5 295 37 46 12 121 42 126 49 3
5 9 9 13 9 12 -2 70 31 136 77 86 60 197 175 245 254 21 35 43 66 48 69 5 3 8
10 8 15 -2 12 32 78 42 82 4 2 5 8 2 13 -3 4 2 20 11 34 9 14 13 25 9 25 -4 0
-2 7 5 15 7 8 9 15 5 15 -4 0 -3 6 2 13 12 14 24 56 36 122 3 17 8 42 11 56
30 142 23 426 -14 564 -6 22 -13 47 -15 55 -2 8 -4 17 -5 20 -1 3 -3 10 -4 15
-2 10 -9 28 -26 70 -14 34 -23 60 -24 67 -1 3 -5 10 -9 14 -4 5 -17 26 -27 49
-24 49 -33 64 -90 140 -58 79 -177 195 -199 195 -6 0 -14 6 -18 13 -29 45
-272 142 -378 151 -11 1 -24 4 -30 7 -5 3 -66 4 -135 3 -129 -3 -173 -7 -290
-29 -25 -5 -48 -8 -52 -7 -5 1 -8 -3 -8 -9 0 -5 -4 -8 -8 -5 -5 3 -20 -1 -35
-9 -15 -8 -27 -12 -27 -10 0 2 -13 -1 -30 -6 -16 -6 -30 -15 -30 -20 0 -5 -8
-9 -17 -9 -10 0 -31 -9 -47 -19 -17 -11 -33 -18 -38 -15 -4 3 -8 1 -8 -5 0 -5
-21 -23 -47 -39 -27 -16 -59 -38 -72 -48 -33 -26 -172 -164 -166 -164 3 0 -5
-11 -19 -25 -14 -14 -40 -46 -57 -72 -18 -27 -36 -49 -41 -51 -4 -2 -8 -8 -8
-14 0 -5 -9 -22 -19 -37 -11 -15 -38 -60 -60 -101 -22 -41 -41 -70 -41 -63 0
6 -6 18 -12 25 -7 8 -18 23 -24 33 -6 11 -23 42 -37 68 -15 26 -32 53 -37 60
-6 7 -38 52 -72 101 -81 115 -194 227 -306 304 -50 34 -95 62 -101 62 -6 0
-11 5 -11 12 0 6 -3 9 -6 5 -4 -3 -24 3 -45 14 -22 11 -39 16 -39 12 0 -5 -4
-3 -8 3 -7 11 -95 36 -172 49 -36 7 -237 14 -242 9z m257 -288 c11 -2 20 -5
20 -6 0 -1 14 -4 30 -6 17 -3 36 -7 43 -9 7 -2 16 -5 20 -6 26 -6 137 -59 153
-73 11 -9 26 -16 33 -16 8 0 16 -3 18 -7 2 -5 28 -27 58 -50 52 -39 167 -153
155 -153 -3 0 5 -12 18 -26 30 -32 103 -154 153 -256 l38 -78 -58 -112 c-32
-62 -77 -144 -100 -183 -22 -38 -39 -73 -38 -77 1 -5 -3 -8 -8 -8 -6 0 -10 -7
-10 -15 0 -8 -4 -15 -9 -15 -5 0 -12 -8 -15 -17 -9 -27 -31 -61 -54 -88 -11
-13 -18 -26 -15 -29 3 -3 -2 -8 -11 -12 -9 -3 -16 -10 -16 -15 0 -5 -8 -18
-17 -30 -174 -213 -314 -303 -484 -313 -19 -2 -41 -6 -47 -10 -7 -4 -12 -4
-12 1 0 4 -21 8 -48 9 -76 2 -123 8 -128 16 -3 4 -16 8 -30 8 -14 0 -36 7 -49
16 -14 9 -25 13 -25 9 0 -5 -8 -1 -18 8 -10 10 -22 14 -25 10 -4 -3 -7 -1 -7
5 0 7 -6 12 -13 12 -7 0 -23 9 -35 20 -12 11 -25 20 -30 20 -17 0 -125 126
-158 186 -43 78 -79 176 -89 249 -2 11 -4 21 -5 23 -2 1 -4 11 -5 22 -1 11 -4
21 -5 23 -1 1 -3 22 -4 47 -1 25 -5 50 -9 57 -4 6 -3 14 3 18 6 4 7 12 1 22
-5 9 -5 29 -1 45 5 16 5 30 -1 34 -5 3 -6 11 -2 17 4 6 8 34 9 62 4 73 11 116
23 148 6 15 7 27 4 27 -4 0 -2 5 5 12 7 7 12 18 12 25 0 24 70 161 107 210 61
80 213 200 235 187 5 -3 8 0 8 5 0 6 9 11 20 11 11 0 20 5 20 12 0 6 3 9 6 5
3 -3 17 -2 30 3 23 9 36 12 109 26 16 3 31 6 32 8 4 4 197 -3 218 -8z m2102
-81 c51 -8 115 -26 130 -38 7 -5 17 -6 23 -2 5 3 10 1 10 -4 0 -6 3 -10 8 -9
15 5 125 -74 161 -115 36 -42 62 -73 69 -82 7 -10 45 -86 47 -95 1 -3 9 -22
18 -44 9 -21 15 -42 12 -46 -3 -5 -1 -11 4 -15 5 -3 9 -13 9 -23 0 -9 3 -30 7
-47 14 -61 27 -255 16 -255 -3 0 -6 -26 -6 -58 -1 -31 -5 -77 -9 -102 -4 -25
-9 -54 -11 -65 -2 -11 -10 -44 -18 -72 -8 -29 -11 -53 -8 -53 3 0 1 -4 -4 -8
-6 -4 -16 -25 -24 -46 -7 -22 -26 -60 -42 -85 -16 -25 -33 -56 -39 -69 -24
-55 -207 -212 -247 -212 -7 0 -13 -4 -13 -9 0 -30 -271 -58 -370 -39 -46 9
-75 16 -75 18 0 1 -8 3 -19 5 -32 6 -76 27 -76 36 0 5 -3 8 -7 8 -15 -3 -73
23 -73 32 0 5 -6 9 -13 9 -7 0 -23 9 -35 20 -12 11 -25 20 -29 20 -13 0 -134
127 -187 195 -26 33 -50 65 -55 70 -19 25 -119 202 -125 223 -4 12 -12 22 -17
22 -5 0 -9 9 -9 19 0 11 -4 22 -9 26 -5 3 1 31 13 63 30 75 139 296 149 300 4
2 7 10 7 18 0 8 5 14 10 14 6 0 10 6 10 14 0 7 7 19 15 26 8 7 13 16 10 20 -3
5 -2 10 2 12 5 1 33 37 64 78 112 149 231 251 363 309 98 43 235 57 363 36z"/>
</g>
</svg>
